<?xml version="1.0" encoding="UTF-8" standalone="no"?>
<!DOCTYPE svg PUBLIC "-//W3C//DTD SVG 1.1//EN" "http://www.w3.org/Graphics/SVG/1.1/DTD/svg11.dtd">
<svg width="100%" height="100%" viewBox="0 0 1020 297" version="1.1" xmlns="http://www.w3.org/2000/svg" xmlns:xlink="http://www.w3.org/1999/xlink" xml:space="preserve" xmlns:serif="http://www.serif.com/" style="fill-rule:evenodd;clip-rule:evenodd;stroke-linejoin:round;stroke-miterlimit:2;">
    <g transform="matrix(1,0,0,1,0,-656.408)">
        <g id="_1-color-light" serif:id="1-color-light" transform="matrix(1,0,0,1,-2.00821,654.074)">
            <rect x="2.008" y="2.333" width="1019.98" height="296.038" style="fill:none;"/>
            <g id="Layer-1" serif:id="Layer 1" transform="matrix(4.16667,0,0,4.16667,0.00820933,0.333232)">
                <g transform="matrix(1.24526,0,0,1.24526,-55.7858,-41.1353)">
                    <g transform="matrix(0.878753,0,0,1,33.5574,4.16616)">
                        <path d="M105.615,41.222C105.615,42.155 105.298,42.981 104.665,43.699C105.319,44.129 105.84,44.663 106.228,45.3C106.616,45.937 106.81,46.633 106.81,47.387C106.81,48.033 106.662,48.638 106.365,49.204C106.069,49.769 105.666,50.267 105.155,50.698C104.645,51.128 104.042,51.465 103.348,51.707C102.654,51.949 101.918,52.071 101.142,52.071L93.3,52.071L93.3,36.888L100.438,36.888C101.153,36.888 101.821,37 102.444,37.224C103.067,37.449 103.613,37.758 104.083,38.153C104.553,38.548 104.926,39.01 105.201,39.539C105.477,40.069 105.615,40.63 105.615,41.222ZM100.775,49.029C101.347,49.029 101.832,48.858 102.23,48.517C102.628,48.176 102.827,47.772 102.827,47.306C102.827,46.821 102.628,46.413 102.23,46.081C101.832,45.749 101.347,45.583 100.775,45.583L98.508,45.583L98.508,42.649L99.948,42.649C100.417,42.649 100.821,42.51 101.158,42.231C101.495,41.953 101.663,41.617 101.663,41.222C101.663,40.827 101.495,40.495 101.158,40.226C100.821,39.957 100.417,39.822 99.948,39.822L97.282,39.822L97.282,49.029L100.775,49.029Z" style="fill:white;fill-rule:nonzero;"/>
                        <path d="M125.531,52.071L120.537,52.071L114.104,45.071L114.104,52.071L110.214,52.071L110.214,37.103L118.607,37.103C119.384,37.103 120.114,37.224 120.798,37.467C121.482,37.709 122.079,38.045 122.59,38.476C123.1,38.907 123.504,39.409 123.8,39.984C124.096,40.558 124.244,41.177 124.244,41.841C124.244,42.379 124.147,42.891 123.953,43.376C123.759,43.86 123.488,44.3 123.141,44.695C122.794,45.089 122.381,45.43 121.901,45.718C121.421,46.005 120.895,46.229 120.323,46.391L125.531,52.071ZM114.104,43.591L118.27,43.591C118.842,43.591 119.338,43.425 119.756,43.093C120.175,42.761 120.384,42.344 120.384,41.841C120.384,41.375 120.175,40.971 119.756,40.63C119.338,40.289 118.842,40.118 118.27,40.118L114.104,40.118L114.104,43.591Z" style="fill:white;fill-rule:nonzero;"/>
                        <path d="M146.182,44.345C146.182,45.439 145.937,46.471 145.447,47.44C144.956,48.409 144.282,49.257 143.425,49.984C142.567,50.711 141.561,51.285 140.407,51.707C139.253,52.129 138.023,52.34 136.716,52.34C135.388,52.34 134.148,52.129 132.994,51.707C131.84,51.285 130.834,50.711 129.976,49.984C129.119,49.257 128.44,48.409 127.939,47.44C127.439,46.471 127.189,45.439 127.189,44.345C127.189,43.25 127.439,42.213 127.939,41.235C128.44,40.257 129.119,39.409 129.976,38.692C130.834,37.974 131.84,37.404 132.994,36.982C134.148,36.56 135.388,36.35 136.716,36.35C138.023,36.35 139.253,36.56 140.407,36.982C141.561,37.404 142.567,37.974 143.425,38.692C144.282,39.409 144.956,40.257 145.447,41.235C145.937,42.213 146.182,43.25 146.182,44.345ZM142.291,44.345C142.291,43.699 142.148,43.088 141.862,42.514C141.576,41.94 141.178,41.442 140.668,41.02C140.157,40.598 139.565,40.266 138.891,40.024C138.217,39.782 137.492,39.661 136.716,39.661C135.919,39.661 135.179,39.782 134.495,40.024C133.811,40.266 133.219,40.598 132.718,41.02C132.218,41.442 131.82,41.94 131.523,42.514C131.227,43.088 131.079,43.699 131.079,44.345C131.079,44.991 131.227,45.596 131.523,46.162C131.82,46.727 132.218,47.225 132.718,47.656C133.219,48.086 133.811,48.423 134.495,48.665C135.179,48.908 135.919,49.029 136.716,49.029C137.492,49.029 138.217,48.908 138.891,48.665C139.565,48.423 140.157,48.086 140.668,47.656C141.178,47.225 141.576,46.727 141.862,46.162C142.148,45.596 142.291,44.991 142.291,44.345Z" style="fill:white;fill-rule:nonzero;"/>
                        <path d="M160.001,37.103L165.056,37.103L157.581,44.156L164.964,52.071L160.001,52.071L153.875,45.26L153.875,52.071L149.954,52.071L149.954,37.103L153.875,37.103L153.875,43.106L160.001,37.103Z" style="fill:white;fill-rule:nonzero;"/>
                        <path d="M172.014,40.118L172.014,42.918L179.58,42.918L179.58,45.771L172.014,45.771L172.014,49.082L179.979,49.082L179.979,52.071L168.062,52.071L168.062,37.103L179.979,37.103L179.979,40.118L172.014,40.118Z" style="fill:white;fill-rule:nonzero;"/>
                        <path d="M199.098,36.834L199.098,52.824L187.365,43.429L187.365,51.855L183.475,51.855L183.475,35.865L195.177,45.287L195.177,36.834L199.098,36.834Z" style="fill:white;fill-rule:nonzero;"/>
                        <g transform="matrix(1,0,0,1,0,-13.324)">
                            <path d="M106.718,72.095L102.98,79.767L102.98,79.74L102.643,80.44L100.162,85.555L93.178,69.188L97.313,69.188L100.468,76.967C100.816,76.267 101.173,75.532 101.541,74.76C101.908,73.988 102.281,73.216 102.659,72.445C103.037,71.673 103.409,70.915 103.777,70.17C104.144,69.425 104.492,68.721 104.818,68.057L106.718,72.095ZM116.337,69.188L109.413,85.582L105.462,77.452L107.392,73.414L109.076,76.94C109.607,75.648 110.144,74.356 110.685,73.064C111.226,71.772 111.762,70.48 112.293,69.188L116.337,69.188Z" style="fill:white;fill-rule:nonzero;"/>
                        </g>
                        <g transform="matrix(1,0,0,1,0,-13.324)">
                            <rect x="119.679" y="69.403" width="3.921" height="14.967" style="fill:white;fill-rule:nonzero;"/>
                        </g>
                        <g transform="matrix(1,0,0,1,0,-13.324)">
                            <path d="M142.075,84.37L137.082,84.37L130.649,77.371L130.649,84.37L126.758,84.37L126.758,69.403L135.152,69.403C135.928,69.403 136.658,69.524 137.342,69.766C138.026,70.009 138.624,70.345 139.134,70.776C139.645,71.206 140.048,71.709 140.344,72.283C140.64,72.858 140.788,73.477 140.788,74.141C140.788,74.679 140.691,75.191 140.497,75.675C140.303,76.16 140.033,76.599 139.686,76.994C139.338,77.389 138.925,77.73 138.445,78.017C137.965,78.304 137.439,78.529 136.867,78.69L142.075,84.37ZM130.649,75.89L134.815,75.89C135.387,75.89 135.882,75.724 136.301,75.392C136.719,75.06 136.929,74.643 136.929,74.141C136.929,73.674 136.719,73.27 136.301,72.929C135.882,72.588 135.387,72.418 134.815,72.418L130.649,72.418L130.649,75.89Z" style="fill:white;fill-rule:nonzero;"/>
                        </g>
                        <g transform="matrix(1,0,0,1,0,-13.324)">
                            <path d="M149.124,72.418L149.124,75.217L156.69,75.217L156.69,78.071L149.124,78.071L149.124,81.382L157.089,81.382L157.089,84.37L145.172,84.37L145.172,69.403L157.089,69.403L157.089,72.418L149.124,72.418Z" style="fill:white;fill-rule:nonzero;"/>
                        </g>
                        <g transform="matrix(1,0,0,1,0,-13.324)">
                            <path d="M172.942,76.052C172.492,76.895 172.069,77.699 171.67,78.461C171.272,79.224 170.848,80.063 170.399,80.978L174.075,80.978L175.852,84.37L164.211,84.37L172.942,68.138L181.642,84.37L177.2,84.37L172.942,76.052Z" style="fill:white;fill-rule:nonzero;"/>
                        </g>
                        <g transform="matrix(1,0,0,1,0,-13.324)">
                            <path d="M191.723,69.403C192.499,69.403 193.234,69.524 193.929,69.766C194.623,70.009 195.226,70.345 195.736,70.776C196.247,71.206 196.65,71.709 196.946,72.283C197.242,72.858 197.39,73.477 197.39,74.141C197.39,74.805 197.242,75.428 196.946,76.012C196.65,76.595 196.247,77.102 195.736,77.533C195.226,77.963 194.623,78.304 193.929,78.556C193.234,78.807 192.499,78.932 191.723,78.932L187.251,78.932L187.251,84.37L183.33,84.37L183.33,69.403L191.723,69.403ZM187.251,75.89L191.386,75.89C191.978,75.89 192.479,75.724 192.887,75.392C193.296,75.06 193.5,74.643 193.5,74.141C193.5,73.674 193.296,73.27 192.887,72.929C192.479,72.588 191.978,72.418 191.386,72.418L187.251,72.418L187.251,75.89Z" style="fill:white;fill-rule:nonzero;"/>
                        </g>
                        <g transform="matrix(1,0,0,1,0,-13.324)">
                            <path d="M209.341,69.403C210.117,69.403 210.852,69.524 211.546,69.766C212.241,70.009 212.843,70.345 213.354,70.776C213.864,71.206 214.268,71.709 214.564,72.283C214.86,72.858 215.008,73.477 215.008,74.141C215.008,74.805 214.86,75.428 214.564,76.012C214.268,76.595 213.864,77.102 213.354,77.533C212.843,77.963 212.241,78.304 211.546,78.556C210.852,78.807 210.117,78.932 209.341,78.932L204.868,78.932L204.868,84.37L200.947,84.37L200.947,69.403L209.341,69.403ZM204.868,75.89L209.004,75.89C209.596,75.89 210.096,75.724 210.505,75.392C210.913,75.06 211.117,74.643 211.117,74.141C211.117,73.674 210.913,73.27 210.505,72.929C210.096,72.588 209.596,72.418 209.004,72.418L204.868,72.418L204.868,75.89Z" style="fill:white;fill-rule:nonzero;"/>
                        </g>
                        <g transform="matrix(1,0,0,1,0,-13.324)">
                            <path d="M232.472,79.928C232.472,80.646 232.288,81.297 231.921,81.88C231.553,82.463 231.048,82.957 230.404,83.361C229.761,83.764 229.005,84.079 228.137,84.303C227.269,84.527 226.345,84.639 225.365,84.639C224.609,84.639 223.884,84.541 223.19,84.343C222.496,84.146 221.852,83.877 221.26,83.536C220.668,83.195 220.127,82.795 219.636,82.338C219.146,81.88 218.728,81.391 218.38,80.871L221.903,79.498C222.251,80 222.736,80.458 223.358,80.871C223.981,81.283 224.65,81.508 225.365,81.544C225.753,81.544 226.136,81.512 226.514,81.449C226.892,81.387 227.229,81.283 227.525,81.14C227.821,80.996 228.061,80.817 228.245,80.601C228.428,80.386 228.52,80.126 228.52,79.821C228.52,79.587 228.428,79.372 228.245,79.175C228.061,78.977 227.816,78.807 227.509,78.663C227.203,78.52 226.866,78.39 226.498,78.273C226.131,78.156 225.763,78.053 225.396,77.963C224.62,77.766 223.859,77.537 223.113,77.277C222.368,77.017 221.704,76.703 221.122,76.335C220.54,75.967 220.065,75.549 219.698,75.083C219.33,74.616 219.146,74.087 219.146,73.495C219.146,72.831 219.315,72.202 219.652,71.61C219.989,71.018 220.453,70.502 221.046,70.062C221.638,69.623 222.337,69.277 223.144,69.026C223.951,68.775 224.834,68.649 225.794,68.649C227.264,68.649 228.561,68.963 229.684,69.591C230.808,70.219 231.635,71.009 232.166,71.96L228.827,73.279C228.439,72.813 228,72.436 227.509,72.149C227.019,71.862 226.447,71.718 225.794,71.718C225.1,71.736 224.477,71.888 223.925,72.176C223.374,72.463 223.098,72.858 223.098,73.36C223.098,73.557 223.18,73.737 223.343,73.898C223.507,74.06 223.726,74.204 224.002,74.329C224.278,74.455 224.584,74.567 224.921,74.666C225.258,74.764 225.61,74.859 225.978,74.948C226.795,75.164 227.596,75.406 228.382,75.675C229.169,75.944 229.863,76.272 230.466,76.658C231.068,77.044 231.553,77.501 231.921,78.031C232.288,78.56 232.472,79.193 232.472,79.928Z" style="fill:white;fill-rule:nonzero;"/>
                        </g>
                    </g>
                    <g transform="matrix(0.406481,0,0,0.390762,-88.9263,-50.3382)">
                        <path d="M515.023,338.704C514.453,339.599 513.726,340.313 512.84,340.846C511.955,341.379 510.993,341.646 509.956,341.646C509.159,341.646 508.409,341.494 507.707,341.192C507.005,340.889 506.391,340.478 505.866,339.958C505.341,339.438 504.927,338.829 504.623,338.132C504.319,337.434 504.168,336.684 504.168,335.882C504.168,335.092 504.319,334.348 504.623,333.651C504.927,332.953 505.341,332.345 505.866,331.825C506.391,331.305 507.005,330.894 507.707,330.591C508.409,330.288 509.159,330.137 509.956,330.137C510.993,330.137 511.955,330.407 512.84,330.946C513.726,331.486 514.453,332.197 515.023,333.078L513.03,334.342C512.689,333.789 512.246,333.345 511.702,333.009C511.158,332.674 510.582,332.506 509.975,332.506C509.507,332.506 509.067,332.595 508.656,332.772C508.245,332.95 507.884,333.193 507.574,333.503C507.264,333.812 507.021,334.171 506.843,334.579C506.666,334.987 506.578,335.421 506.578,335.882C506.578,336.355 506.666,336.796 506.843,337.204C507.021,337.612 507.264,337.967 507.574,338.27C507.884,338.573 508.245,338.813 508.656,338.991C509.067,339.168 509.507,339.257 509.975,339.257C510.582,339.257 511.155,339.089 511.692,338.754C512.23,338.418 512.67,337.974 513.011,337.421L515.023,338.704Z" style="fill:white;fill-rule:nonzero;"/>
                        <path d="M526.03,330.749L526.03,337.638C526.03,338.257 525.913,338.833 525.679,339.366C525.445,339.899 525.125,340.369 524.72,340.777C524.315,341.185 523.841,341.504 523.297,341.735C522.753,341.965 522.177,342.08 521.57,342.08C520.95,342.08 520.368,341.965 519.824,341.735C519.28,341.504 518.802,341.185 518.391,340.777C517.98,340.369 517.657,339.899 517.423,339.366C517.189,338.833 517.072,338.257 517.072,337.638L517.072,330.749L519.52,330.749L519.52,337.678C519.52,337.954 519.574,338.214 519.682,338.458C519.789,338.701 519.935,338.915 520.118,339.099C520.302,339.284 520.517,339.428 520.763,339.534C521.01,339.639 521.279,339.691 521.57,339.691C521.848,339.691 522.111,339.639 522.358,339.534C522.604,339.428 522.823,339.284 523.012,339.099C523.202,338.915 523.351,338.701 523.458,338.458C523.566,338.214 523.62,337.954 523.62,337.678L523.62,330.749L526.03,330.749Z" style="fill:white;fill-rule:nonzero;"/>
                        <path d="M536.866,338.389C536.866,338.915 536.752,339.392 536.524,339.82C536.297,340.248 535.983,340.609 535.585,340.906C535.186,341.202 534.718,341.432 534.181,341.596C533.643,341.761 533.07,341.843 532.463,341.843C531.995,341.843 531.546,341.771 531.116,341.626C530.685,341.481 530.287,341.284 529.92,341.034C529.553,340.784 529.218,340.491 528.914,340.155C528.611,339.82 528.351,339.461 528.136,339.08L530.319,338.073C530.534,338.441 530.834,338.777 531.22,339.08C531.606,339.382 532.02,339.547 532.463,339.573C532.703,339.573 532.941,339.55 533.175,339.504C533.409,339.458 533.618,339.382 533.801,339.277C533.984,339.172 534.133,339.04 534.247,338.882C534.361,338.724 534.418,338.533 534.418,338.31C534.418,338.139 534.361,337.981 534.247,337.836C534.133,337.691 533.981,337.566 533.791,337.461C533.602,337.355 533.393,337.26 533.165,337.175C532.937,337.089 532.71,337.013 532.482,336.948C532.001,336.803 531.53,336.635 531.068,336.444C530.606,336.253 530.195,336.023 529.835,335.753C529.474,335.483 529.18,335.177 528.952,334.835C528.724,334.493 528.611,334.105 528.611,333.671C528.611,333.184 528.715,332.723 528.924,332.289C529.133,331.854 529.42,331.476 529.787,331.154C530.154,330.831 530.587,330.578 531.087,330.394C531.587,330.209 532.134,330.117 532.729,330.117C533.64,330.117 534.443,330.347 535.139,330.808C535.835,331.269 536.347,331.848 536.676,332.545L534.608,333.513C534.367,333.17 534.095,332.894 533.791,332.683C533.488,332.473 533.134,332.368 532.729,332.368C532.299,332.381 531.913,332.493 531.571,332.703C531.23,332.914 531.059,333.203 531.059,333.572C531.059,333.717 531.109,333.848 531.211,333.967C531.312,334.085 531.448,334.19 531.619,334.283C531.789,334.375 531.979,334.457 532.188,334.529C532.397,334.602 532.615,334.671 532.843,334.737C533.349,334.894 533.845,335.072 534.332,335.27C534.819,335.467 535.25,335.707 535.623,335.99C535.996,336.273 536.297,336.609 536.524,336.997C536.752,337.385 536.866,337.849 536.866,338.389Z" style="fill:white;fill-rule:nonzero;"/>
                        <path d="M548.176,333.059L544.552,333.059L544.552,341.646L542.123,341.646L542.123,333.059L538.517,333.059L538.517,330.67L548.176,330.67L548.176,333.059Z" style="fill:white;fill-rule:nonzero;"/>
                        <path d="M561.271,335.98C561.271,336.783 561.119,337.54 560.815,338.25C560.512,338.961 560.094,339.583 559.563,340.116C559.031,340.649 558.408,341.07 557.694,341.379C556.979,341.689 556.217,341.843 555.407,341.843C554.584,341.843 553.816,341.689 553.101,341.379C552.386,341.07 551.763,340.649 551.232,340.116C550.7,339.583 550.28,338.961 549.97,338.25C549.66,337.54 549.505,336.783 549.505,335.98C549.505,335.177 549.66,334.417 549.97,333.7C550.28,332.983 550.7,332.361 551.232,331.835C551.763,331.308 552.386,330.89 553.101,330.581C553.816,330.272 554.584,330.117 555.407,330.117C556.217,330.117 556.979,330.272 557.694,330.581C558.408,330.89 559.031,331.308 559.563,331.835C560.094,332.361 560.512,332.983 560.815,333.7C561.119,334.417 561.271,335.177 561.271,335.98ZM558.861,335.98C558.861,335.506 558.772,335.059 558.595,334.638C558.418,334.217 558.171,333.851 557.855,333.542C557.539,333.233 557.172,332.989 556.754,332.812C556.337,332.634 555.888,332.545 555.407,332.545C554.913,332.545 554.455,332.634 554.031,332.812C553.607,332.989 553.24,333.233 552.93,333.542C552.62,333.851 552.374,334.217 552.19,334.638C552.007,335.059 551.915,335.506 551.915,335.98C551.915,336.454 552.007,336.898 552.19,337.313C552.374,337.727 552.62,338.092 552.93,338.408C553.24,338.724 553.607,338.971 554.031,339.149C554.455,339.326 554.913,339.415 555.407,339.415C555.888,339.415 556.337,339.326 556.754,339.149C557.172,338.971 557.539,338.724 557.855,338.408C558.171,338.092 558.418,337.727 558.595,337.313C558.772,336.898 558.861,336.454 558.861,335.98Z" style="fill:white;fill-rule:nonzero;"/>
                        <path d="M574.707,341.646L572.278,341.646L572.278,335.645L569.165,338.685L566.053,335.645L566.053,341.646L563.643,341.646L563.643,329.94L569.165,335.23C569.596,334.822 570.048,334.391 570.522,333.937C570.997,333.483 571.474,333.029 571.955,332.575C572.436,332.121 572.91,331.67 573.378,331.223C573.847,330.775 574.289,330.347 574.707,329.94L574.707,341.646Z" style="fill:white;fill-rule:nonzero;"/>
                        <path d="M596.36,330.413L592.071,342.376L589.206,335.447L586.34,342.376L582.013,330.413L584.575,330.413L586.53,336.099L589.206,329.564L591.863,336.079L593.855,330.413L596.36,330.413Z" style="fill:white;fill-rule:nonzero;"/>
                        <path d="M600.004,332.881L600.004,334.934L604.691,334.934L604.691,337.026L600.004,337.026L600.004,339.455L604.938,339.455L604.938,341.646L597.556,341.646L597.556,330.67L604.938,330.67L604.938,332.881L600.004,332.881Z" style="fill:white;fill-rule:nonzero;"/>
                        <path d="M615.319,338.25C615.319,338.724 615.227,339.165 615.043,339.573C614.86,339.981 614.613,340.34 614.303,340.649C613.993,340.958 613.626,341.202 613.203,341.379C612.779,341.557 612.333,341.646 611.865,341.646L607.082,341.646L607.082,330.67L611.428,330.67C611.858,330.67 612.266,330.752 612.652,330.917C613.038,331.081 613.377,331.305 613.668,331.588C613.959,331.871 614.186,332.203 614.351,332.585C614.515,332.966 614.597,333.374 614.597,333.809C614.597,334.467 614.408,335.066 614.028,335.605C614.888,336.237 615.319,337.119 615.319,338.25ZM612.89,338.191C612.89,337.849 612.769,337.559 612.529,337.323C612.289,337.086 611.991,336.967 611.637,336.967L609.512,336.967L609.512,339.455L611.637,339.455C611.991,339.455 612.289,339.33 612.529,339.08C612.769,338.829 612.89,338.533 612.89,338.191ZM609.512,332.802L609.512,334.835L611.125,334.835C611.416,334.835 611.662,334.733 611.865,334.529C612.067,334.325 612.168,334.085 612.168,333.809C612.168,333.519 612.067,333.279 611.865,333.088C611.662,332.897 611.416,332.802 611.125,332.802L609.512,332.802Z" style="fill:white;fill-rule:nonzero;"/>
                        <path d="M632.247,336.158C632.019,337.158 631.658,338.06 631.165,338.862C630.95,339.205 630.7,339.54 630.415,339.869C630.131,340.198 629.798,340.491 629.419,340.748C629.039,341.004 628.609,341.218 628.128,341.389C627.648,341.56 627.11,341.652 626.515,341.666C625.946,341.666 625.424,341.577 624.95,341.399C624.475,341.221 624.064,340.975 623.716,340.659C623.368,340.343 623.099,339.978 622.91,339.563C622.72,339.149 622.625,338.704 622.625,338.231C622.625,337.823 622.688,337.457 622.815,337.135C622.941,336.813 623.109,336.526 623.318,336.276C623.526,336.026 623.767,335.803 624.039,335.605C624.311,335.408 624.592,335.223 624.883,335.052C625.212,334.894 625.51,334.75 625.775,334.618C626.003,334.513 626.221,334.411 626.43,334.312C626.639,334.213 626.762,334.151 626.8,334.125C626.939,334.046 627.069,333.97 627.189,333.898C627.309,333.825 627.414,333.736 627.502,333.631C627.73,333.42 627.844,333.197 627.844,332.96C627.844,332.762 627.771,332.578 627.626,332.407C627.48,332.236 627.287,332.15 627.047,332.15C626.781,332.15 626.575,332.239 626.43,332.417C626.284,332.595 626.212,332.782 626.212,332.98C626.212,333.243 626.357,333.618 626.648,334.105L624.694,335.033C624.478,334.69 624.32,334.358 624.219,334.036C624.118,333.713 624.067,333.401 624.067,333.098C624.067,332.69 624.146,332.302 624.304,331.933C624.463,331.565 624.675,331.249 624.94,330.986C625.206,330.723 625.519,330.512 625.88,330.354C626.24,330.196 626.623,330.117 627.028,330.117C627.42,330.117 627.793,330.186 628.147,330.324C628.502,330.463 628.812,330.653 629.077,330.897C629.343,331.14 629.552,331.44 629.704,331.795C629.855,332.15 629.931,332.545 629.931,332.98C629.931,333.624 629.76,334.138 629.419,334.519C629.077,334.901 628.641,335.25 628.109,335.566L628.242,335.684C628.419,335.842 628.59,335.997 628.755,336.148C628.919,336.299 629.109,336.467 629.324,336.651L629.666,336.829C629.514,337.066 629.356,337.296 629.191,337.52C629.052,337.704 628.897,337.892 628.726,338.083C628.555,338.273 628.394,338.415 628.242,338.507C627.837,338.165 627.455,337.846 627.094,337.55C626.734,337.254 626.408,336.961 626.117,336.671C625.737,336.895 625.434,337.125 625.206,337.362C624.978,337.599 624.864,337.889 624.864,338.231C624.864,338.599 625.013,338.922 625.31,339.198C625.608,339.474 626.022,339.613 626.553,339.613C626.768,339.613 626.974,339.586 627.17,339.534C627.366,339.481 627.553,339.409 627.73,339.316L627.711,339.336C627.812,339.27 627.901,339.211 627.977,339.158C628.053,339.106 628.141,339.047 628.242,338.981C628.47,338.797 628.672,338.593 628.85,338.369C629.027,338.145 629.182,337.928 629.315,337.717C629.447,337.507 629.555,337.316 629.637,337.145C629.719,336.974 629.779,336.849 629.817,336.77C629.817,336.757 629.824,336.757 629.836,336.77L630.007,336.336L630.026,336.296C630.077,336.164 630.121,336.043 630.159,335.931C630.197,335.819 630.229,335.717 630.254,335.625C630.292,335.52 630.317,335.421 630.33,335.329L632.057,335.822L632.247,336.158ZM634.998,341.666L632.19,341.666L630.368,340.244L631.62,338.527L634.998,341.666Z" style="fill:white;fill-rule:nonzero;"/>
                        <path d="M649.08,340.165L645.094,340.165C644.993,340.402 644.886,340.652 644.772,340.915C644.658,341.179 644.55,341.422 644.449,341.646L641.697,341.646L647.106,329.742L652.495,341.646L649.744,341.646L649.08,340.165ZM648.017,337.638C647.928,337.441 647.849,337.267 647.78,337.115C647.71,336.964 647.64,336.809 647.571,336.651C647.501,336.493 647.429,336.329 647.353,336.158C647.277,335.987 647.194,335.789 647.106,335.566L646.195,337.638L648.017,337.638Z" style="fill:white;fill-rule:nonzero;"/>
                        <path d="M658.739,330.67C659.22,330.67 659.675,330.759 660.105,330.936C660.536,331.114 660.909,331.361 661.225,331.677C661.541,331.993 661.791,332.361 661.975,332.782C662.158,333.203 662.25,333.657 662.25,334.144C662.25,334.631 662.158,335.089 661.975,335.516C661.791,335.944 661.541,336.316 661.225,336.632C660.909,336.948 660.536,337.198 660.105,337.382C659.675,337.566 659.22,337.658 658.739,337.658L655.968,337.658L655.968,341.646L653.539,341.646L653.539,330.67L658.739,330.67ZM655.968,335.427L658.53,335.427C658.897,335.427 659.207,335.306 659.46,335.062C659.713,334.819 659.84,334.513 659.84,334.144C659.84,333.802 659.713,333.506 659.46,333.256C659.207,333.006 658.897,332.881 658.53,332.881L655.968,332.881L655.968,335.427Z" style="fill:white;fill-rule:nonzero;"/>
                        <path d="M669.651,330.67C670.132,330.67 670.587,330.759 671.017,330.936C671.448,331.114 671.821,331.361 672.137,331.677C672.453,331.993 672.703,332.361 672.887,332.782C673.07,333.203 673.162,333.657 673.162,334.144C673.162,334.631 673.07,335.089 672.887,335.516C672.703,335.944 672.453,336.316 672.137,336.632C671.821,336.948 671.448,337.198 671.017,337.382C670.587,337.566 670.132,337.658 669.651,337.658L666.88,337.658L666.88,341.646L664.451,341.646L664.451,330.67L669.651,330.67ZM666.88,335.427L669.442,335.427C669.809,335.427 670.119,335.306 670.372,335.062C670.625,334.819 670.752,334.513 670.752,334.144C670.752,333.802 670.625,333.506 670.372,333.256C670.119,333.006 669.809,332.881 669.442,332.881L666.88,332.881L666.88,335.427Z" style="fill:white;fill-rule:nonzero;"/>
                        <path d="M684.302,330.315C685.073,330.315 685.801,330.449 686.484,330.719C687.167,330.989 687.762,331.367 688.268,331.854C688.774,332.341 689.173,332.927 689.464,333.611C689.755,334.296 689.9,335.052 689.9,335.882C689.9,336.711 689.755,337.471 689.464,338.162C689.173,338.853 688.774,339.445 688.268,339.938C687.762,340.432 687.167,340.813 686.484,341.083C685.801,341.353 685.073,341.488 684.302,341.488L680.449,341.488L680.449,330.315L684.302,330.315ZM682.916,339.06L684.245,339.06C684.688,339.06 685.102,338.978 685.488,338.813C685.874,338.649 686.212,338.425 686.503,338.142C686.794,337.859 687.025,337.523 687.196,337.135C687.367,336.747 687.452,336.329 687.452,335.882C687.452,335.447 687.367,335.039 687.196,334.658C687.025,334.276 686.794,333.944 686.503,333.661C686.212,333.378 685.874,333.154 685.488,332.989C685.102,332.825 684.688,332.743 684.245,332.743L682.916,332.743L682.916,339.06Z" style="fill:white;fill-rule:nonzero;"/>
                        <path d="M694.455,332.881L694.455,334.934L699.142,334.934L699.142,337.026L694.455,337.026L694.455,339.455L699.389,339.455L699.389,341.646L692.007,341.646L692.007,330.67L699.389,330.67L699.389,332.881L694.455,332.881Z" style="fill:white;fill-rule:nonzero;"/>
                        <path d="M701.4,330.65L704.095,330.65L705.253,333.295L706.714,336.651L707.758,334.223L708.593,332.289C708.694,332.052 708.811,331.779 708.944,331.469C709.077,331.16 709.194,330.887 709.295,330.65L712.028,330.65L706.714,342.376L702.71,333.532L701.4,330.65Z" style="fill:white;fill-rule:nonzero;"/>
                        <path d="M716.563,332.881L716.563,334.934L721.251,334.934L721.251,337.026L716.563,337.026L716.563,339.455L721.498,339.455L721.498,341.646L714.115,341.646L714.115,330.67L721.498,330.67L721.498,332.881L716.563,332.881Z" style="fill:white;fill-rule:nonzero;"/>
                        <path d="M731.688,339.435L731.688,341.646L723.623,341.646L723.623,330.67L726.052,330.67L726.052,339.435L731.688,339.435Z" style="fill:white;fill-rule:nonzero;"/>
                        <path d="M744.726,335.98C744.726,336.783 744.574,337.54 744.27,338.25C743.967,338.961 743.549,339.583 743.018,340.116C742.487,340.649 741.864,341.07 741.149,341.379C740.434,341.689 739.672,341.843 738.862,341.843C738.04,341.843 737.271,341.689 736.556,341.379C735.841,341.07 735.218,340.649 734.687,340.116C734.155,339.583 733.735,338.961 733.425,338.25C733.115,337.54 732.96,336.783 732.96,335.98C732.96,335.177 733.115,334.417 733.425,333.7C733.735,332.983 734.155,332.361 734.687,331.835C735.218,331.308 735.841,330.89 736.556,330.581C737.271,330.272 738.04,330.117 738.862,330.117C739.672,330.117 740.434,330.272 741.149,330.581C741.864,330.89 742.487,331.308 743.018,331.835C743.549,332.361 743.967,332.983 744.27,333.7C744.574,334.417 744.726,335.177 744.726,335.98ZM742.316,335.98C742.316,335.506 742.227,335.059 742.05,334.638C741.873,334.217 741.626,333.851 741.31,333.542C740.994,333.233 740.627,332.989 740.209,332.812C739.792,332.634 739.343,332.545 738.862,332.545C738.368,332.545 737.91,332.634 737.486,332.812C737.062,332.989 736.695,333.233 736.385,333.542C736.075,333.851 735.829,334.217 735.645,334.638C735.462,335.059 735.37,335.506 735.37,335.98C735.37,336.454 735.462,336.898 735.645,337.313C735.829,337.727 736.075,338.092 736.385,338.408C736.695,338.724 737.062,338.971 737.486,339.149C737.91,339.326 738.368,339.415 738.862,339.415C739.343,339.415 739.792,339.326 740.209,339.149C740.627,338.971 740.994,338.724 741.31,338.408C741.626,338.092 741.873,337.727 742.05,337.313C742.227,336.898 742.316,336.454 742.316,335.98Z" style="fill:white;fill-rule:nonzero;"/>
                        <path d="M752.26,330.67C752.741,330.67 753.196,330.759 753.626,330.936C754.057,331.114 754.43,331.361 754.746,331.677C755.062,331.993 755.312,332.361 755.496,332.782C755.679,333.203 755.771,333.657 755.771,334.144C755.771,334.631 755.679,335.089 755.496,335.516C755.312,335.944 755.062,336.316 754.746,336.632C754.43,336.948 754.057,337.198 753.626,337.382C753.196,337.566 752.741,337.658 752.26,337.658L749.489,337.658L749.489,341.646L747.06,341.646L747.06,330.67L752.26,330.67ZM749.489,335.427L752.051,335.427C752.418,335.427 752.728,335.306 752.981,335.062C753.234,334.819 753.361,334.513 753.361,334.144C753.361,333.802 753.234,333.506 752.981,333.256C752.728,333.006 752.418,332.881 752.051,332.881L749.489,332.881L749.489,335.427Z" style="fill:white;fill-rule:nonzero;"/>
                        <path d="M769.074,341.646L766.645,341.646L766.645,335.645L763.533,338.685L760.42,335.645L760.42,341.646L758.01,341.646L758.01,329.94L763.533,335.23C763.963,334.822 764.415,334.391 764.889,333.937C765.364,333.483 765.842,333.029 766.322,332.575C766.803,332.121 767.277,331.67 767.746,331.223C768.214,330.775 768.657,330.347 769.074,329.94L769.074,341.646Z" style="fill:white;fill-rule:nonzero;"/>
                        <path d="M773.799,332.881L773.799,334.934L778.487,334.934L778.487,337.026L773.799,337.026L773.799,339.455L778.734,339.455L778.734,341.646L771.351,341.646L771.351,330.67L778.734,330.67L778.734,332.881L773.799,332.881Z" style="fill:white;fill-rule:nonzero;"/>
                        <path d="M790.575,330.473L790.575,342.199L783.307,335.309L783.307,341.488L780.897,341.488L780.897,329.762L788.146,336.671L788.146,330.473L790.575,330.473Z" style="fill:white;fill-rule:nonzero;"/>
                        <path d="M802.493,333.059L798.869,333.059L798.869,341.646L796.44,341.646L796.44,333.059L792.834,333.059L792.834,330.67L802.493,330.67L802.493,333.059Z" style="fill:white;fill-rule:nonzero;"/>
                    </g>
                </g>
                <g transform="matrix(1.24526,0,0,1.24526,-47.3831,-42.7914)">
                    <g transform="matrix(2.53665,0,0,2.88665,-194.276,-158.68)">
                        <path d="M97.071,78.312L93.178,69.188L97.313,69.188L99.319,74.133L97.071,78.312ZM103.14,71.464C103.354,71.028 103.566,70.597 103.777,70.17C104.144,69.425 104.492,68.721 104.818,68.057L106.718,72.095L105.175,75.261L103.14,71.464ZM105.88,76.577L107.392,73.414L109.076,76.94C109.607,75.648 110.144,74.356 110.685,73.064C111.226,71.772 111.762,70.48 112.293,69.188L116.337,69.188L109.983,84.232L105.88,76.577ZM109.458,85.475L109.413,85.582L109.362,85.475L109.458,85.475ZM103.129,79.462L102.98,79.767L102.98,79.74L102.643,80.44L101.846,82.083L99.407,82.083C99.856,81.168 100.28,80.329 100.678,79.566C101.076,78.804 101.5,78.001 101.949,77.157L103.129,79.462ZM100.201,85.475L100.162,85.555L100.128,85.475L100.201,85.475Z" style="fill:white;"/>
                    </g>
                    <g transform="matrix(2.53665,0,0,2.88665,-374.358,-155.49)">
                        <path d="M173.086,75.995L172.799,75.993C172.349,76.837 171.925,77.64 171.527,78.404C171.128,79.167 170.704,80.007 170.254,80.923L170.159,81.117L173.974,81.117L175.606,84.232L164.46,84.232L172.941,68.462C172.941,68.462 181.393,84.232 181.393,84.232L177.302,84.232C177.302,84.232 173.086,75.995 173.086,75.995Z" style="fill:white;"/>
                    </g>
                </g>
            </g>
        </g>
    </g>
</svg>
